<?xml version="1.0" encoding="UTF-8"?>
<svg xmlns="http://www.w3.org/2000/svg" xmlns:xlink="http://www.w3.org/1999/xlink" width="150px" height="150px" viewBox="0 0 150 150" version="1.1">
<g id="surface1">
<path style=" stroke:none;fill-rule:nonzero;fill:rgb(100%,100%,100%);fill-opacity:1;" d="M 146.101562 75.03125 C 146.101562 35.761719 114.269531 3.925781 75 3.925781 C 35.730469 3.925781 3.898438 35.761719 3.898438 75.03125 C 3.898438 114.296875 35.730469 146.132812 75 146.132812 C 114.269531 146.132812 146.101562 114.296875 146.101562 75.03125 Z M 146.101562 75.03125 "/>
<path style=" stroke:none;fill-rule:nonzero;fill:rgb(61.56863%,78.431374%,14.509805%);fill-opacity:1;" d="M 75 6.125 C 112.96875 6.125 143.90625 37 143.90625 75.027344 C 143.90625 113.054688 112.96875 143.875 75 143.875 C 37.03125 143.875 6.09375 113 6.09375 74.96875 C 6.09375 36.945312 36.945312 6.125 75 6.125 M 75 1.757812 C 34.601562 1.757812 1.789062 34.539062 1.789062 74.96875 C 1.789062 115.398438 34.511719 148.242188 75 148.242188 C 115.488281 148.242188 148.210938 115.460938 148.210938 75.03125 C 148.210938 34.601562 115.398438 1.757812 75 1.757812 Z M 75 1.757812 "/>
<path style=" stroke:none;fill-rule:nonzero;fill:rgb(61.56863%,78.431374%,14.509805%);fill-opacity:1;" d="M 57.039062 108.75 L 36.296875 108.75 C 34.070312 108.75 32.3125 106.992188 32.3125 104.765625 L 32.3125 45.234375 C 32.3125 43.007812 34.070312 41.25 36.296875 41.25 L 57.039062 41.25 C 58.007812 37.648438 60.058594 34.425781 62.78125 31.992188 L 36.296875 31.992188 C 28.886719 31.992188 22.9375 37.941406 22.9375 45.234375 L 22.9375 104.765625 C 22.9375 112.0625 28.886719 118.007812 36.296875 118.007812 L 62.78125 118.007812 C 60.058594 115.578125 58.007812 112.351562 57.039062 108.75 Z M 56.25 47.871094 L 43.59375 47.871094 C 40.957031 47.871094 38.90625 49.921875 38.90625 52.558594 C 38.90625 55.078125 40.957031 57.246094 43.59375 57.246094 L 56.25 57.246094 Z M 38.90625 69.785156 C 38.90625 72.304688 40.957031 74.472656 43.59375 74.472656 L 56.25 74.472656 L 56.25 65.214844 L 43.59375 65.214844 C 41.046875 65.125 38.90625 67.148438 38.90625 69.785156 Z M 106.40625 47.871094 L 82.351562 47.871094 C 79.71875 47.871094 77.664062 49.921875 77.664062 52.558594 C 77.664062 55.078125 79.71875 57.246094 82.351562 57.246094 L 106.40625 57.246094 C 109.042969 57.246094 111.09375 55.195312 111.09375 52.558594 C 111.09375 50.007812 108.953125 47.871094 106.40625 47.871094 Z M 113.730469 31.992188 L 74.941406 31.992188 C 67.53125 31.992188 61.582031 37.9375 61.582031 45.234375 L 61.582031 104.765625 C 61.582031 112.0625 67.53125 118.007812 74.941406 118.007812 L 113.703125 118.007812 C 121.113281 118.007812 127.0625 112.0625 127.0625 104.765625 L 127.0625 45.234375 C 127.179688 37.9375 121.113281 31.992188 113.730469 31.992188 Z M 117.804688 104.765625 C 117.804688 106.992188 116.046875 108.75 113.820312 108.75 L 75.058594 108.75 C 72.832031 108.75 71.074219 106.992188 71.074219 104.765625 L 71.074219 45.234375 C 71.074219 43.007812 72.832031 41.25 75.058594 41.25 L 113.820312 41.25 C 116.046875 41.25 117.804688 43.007812 117.804688 45.234375 Z M 106.40625 65.125 L 82.351562 65.125 C 79.71875 65.125 77.664062 67.179688 77.664062 69.8125 C 77.664062 72.335938 79.71875 74.5 82.351562 74.5 L 106.40625 74.5 C 109.042969 74.5 111.09375 72.453125 111.09375 69.8125 C 111.09375 67.148438 108.953125 65.125 106.40625 65.125 Z M 106.40625 65.125 "/>
</g>
</svg>
